<svg width="273" height="137" viewBox="0 0 273 137" fill="none" xmlns="http://www.w3.org/2000/svg">
<path d="M175.457 69.6977C174.689 66.4638 173.865 64.25 172.951 62.767C172.979 64.5923 172.94 66.2456 172.871 67.6009C172.529 74.356 152.977 86.1278 150.939 85.6701C140.857 80.5151 131.531 74.6718 124.319 68.5411C122.046 70.7053 120.156 73.5454 118.804 77.2493C126.948 86.4329 133.699 93.7717 133.699 93.7717C132.362 94.4603 130.862 94.7742 129.36 94.6799C129.31 94.689 129.26 94.6949 129.209 94.6977C126.198 94.8272 119.822 92.6009 116.638 91.407L116.193 110.933C117.794 109.586 120.085 108.493 123.23 108.804C123.372 108.818 123.502 108.887 123.593 108.996C123.683 109.106 123.726 109.246 123.712 109.388C123.699 109.529 123.629 109.659 123.52 109.749C123.41 109.839 123.269 109.882 123.127 109.868C119.811 109.545 117.572 110.933 116.161 112.387L116.143 113.132C118.022 111.731 120.904 110.498 124.65 111.612C124.786 111.653 124.9 111.745 124.967 111.869C125.034 111.994 125.049 112.139 125.008 112.275C124.968 112.41 124.875 112.524 124.75 112.591C124.626 112.658 124.48 112.673 124.344 112.632C120.542 111.5 117.762 113.033 116.161 114.45C116.978 115.962 117.266 117.961 116.373 120.551C118.434 118.777 120.425 117.381 121.419 117.638C123.821 118.259 125.465 121.101 121.242 124.725C120.389 125.454 119.475 126.171 118.552 126.854C121.348 125.484 123.99 124.514 125.038 125.209C127.528 126.863 125.927 131.98 120.133 133.614C118.137 134.176 116.739 134.645 115.686 135.003V135.588H145.33L144.65 112.385L146.011 111.332L149.243 135.581L182.848 136L175.457 69.6977Z" fill="#263238"/>
<path d="M53.3729 92.9415C52.8392 93.2661 52.2255 92.6186 52.3215 91.345C52.4176 90.0713 58.5762 84.4089 58.5762 84.4089L59.1756 83.804C59.1756 83.804 59.2272 84.0346 56.1515 82.8141C53.0758 81.5937 54.1111 78.4751 55.7833 79.6211C57.4554 80.767 61.2409 80.9799 61.2409 80.9799L71.5888 81.301C77.3062 84.1393 73.6612 92.4466 73.6612 92.4466L65.3627 92.7605" stroke="white" stroke-width="1.07019" stroke-linecap="round" stroke-linejoin="round"/>
<path d="M57.5446 88.6965C57.3453 88.8047 49.7886 95.2459 53.4531 96.9169" stroke="white" stroke-width="1.07019" stroke-linecap="round" stroke-linejoin="round"/>
<path d="M58.7808 90.6957C58.7808 90.6957 53.284 95.8968 53.4334 97.3621C53.5828 98.8274 54.442 99.2833 56.0555 97.1031" stroke="white" stroke-width="1.07019" stroke-linecap="round" stroke-linejoin="round"/>
<path d="M60.5382 92.3402C60.5382 92.3402 55.9433 95.5332 55.447 98.8487C56.2226 100.759 60.6734 96.6136 61.5575 95.2671C61.5575 95.2671 63.8826 95.0046 66.2912 91.3042" stroke="white" stroke-width="1.07019" stroke-linecap="round" stroke-linejoin="round"/>
<path d="M114.071 56.8066C107.234 48.4957 108.152 19.6907 108.152 19.6907C108.152 19.6907 106.939 19.9692 104.515 20.6273C104.149 20.7538 103.803 20.9286 103.485 21.1471L103.91 21.195C103.91 21.195 102.001 30.3644 103.115 42.1273C103.115 42.1273 96.3334 41.6466 89.095 37.116C88.3123 41.6359 97.237 51.8396 100.75 56.5706C104.264 61.3017 126.486 87.2773 129.243 88.716C132 90.1546 145.477 82.6846 145.477 82.6846C133.818 77.1996 120.909 65.1174 114.071 56.8066Z" fill="#397DF6"/>
<path d="M76.4985 30.5756C76.4238 35.0689 80.4797 39.3831 83.2281 42.1061C81.6128 45.1324 78.4464 55.815 82.3902 75.738C78.6545 75.738 75.682 75.7912 74.7658 75.9668C71.683 76.5593 72.6721 78.8424 70.4235 79.5519C68.175 80.2615 67.4492 80.5365 67.4492 80.5365C67.4492 80.5365 71.0711 87.7279 68.6945 92.5406C68.6945 92.5406 69.4647 93.142 71.7435 93.7558C74.0223 94.3695 73.131 96.6934 76.2352 97.1528C78.1546 97.4384 92.2987 97.3976 102.828 97.3302C103.966 97.3222 105.091 97.081 106.131 96.6215C107.172 96.1621 108.107 95.4941 108.878 94.6592C109.649 93.8243 110.24 92.8402 110.613 91.7681C110.987 90.696 111.136 89.5587 111.05 88.4269L111.079 88.4375L111.034 88.2335C110.97 87.624 110.839 87.0232 110.645 86.4418L109.933 83.2133C109.933 83.2133 112.873 87.9727 113.464 89.2145C114.055 90.4562 115.403 90.9405 116.41 91.3201C119.511 92.4927 126.117 94.8272 129.2 94.6906C129.251 94.6878 129.301 94.6819 129.351 94.6729C130.853 94.7672 132.353 94.4533 133.69 93.7646" stroke="white" stroke-width="1.07019" stroke-linecap="round" stroke-linejoin="round"/>
<path d="M183.346 40.8271C182.133 37.909 176.955 28.6845 165.365 31.1468C163.159 31.6198 161.091 32.1567 159.159 32.7575C150.275 24.3934 137.157 13.6416 129.104 14.2927C125.211 14.6342 121.358 15.3343 117.595 16.3841C113.537 8.75625 105.854 4.54849 95.6199 9.75142" stroke="white" stroke-width="1.07019" stroke-linecap="round" stroke-linejoin="round"/>
<path d="M150.938 85.6702C152.539 86.025 165.063 78.7767 170.437 72.3817" stroke="white" stroke-width="1.07019" stroke-linecap="round" stroke-linejoin="round"/>
<path d="M71.3592 93.6103C68.9025 93.0284 68.0753 92.4413 68.0753 92.4413C70.685 87.6747 66.8425 80.6216 66.8425 80.6216C66.8425 80.6216 67.627 80.3395 70.0659 79.6175C71.0479 79.3266 71.4659 78.7891 71.8306 78.2108C77.4857 83.043 75.4079 92.7765 74.4029 96.3244C73.106 95.48 73.2217 94.052 71.3592 93.6103Z" fill="#263238"/>
<path d="M89.802 47.1324C87.8791 48.429 84.8048 49.2798 81.4268 48.8238C81.717 46.381 82.4361 44.0082 83.5511 41.8142C84.8345 43.2943 86.3331 44.5898 87.5554 45.5397C88.6149 46.363 89.4708 46.9297 89.802 47.1324Z" fill="white" stroke="white" stroke-width="0.178364"/>
<path d="M117.083 16.5669C121.119 24.4395 120.096 32.0178 117.648 37.3058C125.091 37.0185 132.797 14.2945 129.629 14.2643C127.052 14.2412 120.379 15.7544 117.97 16.3203C117.977 16.3327 117.075 16.5527 117.083 16.5669Z" fill="white"/>
<path d="M179.611 50.5339C180.998 49.3365 180.749 48.5933 180.392 48.2136C179.923 47.7213 179.502 47.1869 179.132 46.6171L178.309 45.331H172.465C172.465 45.331 174.283 40.1192 178.335 39.9454C178.593 39.9347 179.983 40.1103 181.834 40.4917C180.361 37.8628 177.435 36.0693 174.064 36.0693C169.213 36.0693 165.282 39.7768 165.282 44.35C165.282 48.9232 169.213 52.6325 174.064 52.6325C175.778 52.6373 177.458 52.1595 178.912 51.2542C179.119 50.9909 179.354 50.7495 179.611 50.5339Z" fill="#263238"/>
<path d="M95.835 17.8635L99.7308 20.7195L103.909 21.1914C103.909 21.1914 102.001 30.3608 103.114 42.1238C103.114 42.1238 96.3936 41.6466 89.1926 37.1745" stroke="white" stroke-width="1.07019" stroke-linecap="round" stroke-linejoin="round"/>
<path d="M90.333 10.1203C90.333 10.1203 93.6311 6.92726 95.9828 10.39C97.5607 12.7262 95.6946 14.3689 94.3035 15.192" stroke="white" stroke-width="1.07019" stroke-linecap="round" stroke-linejoin="round"/>
<path d="M69.0376 22.144C71.8838 25.7841 75.5217 29.0624 78.5405 31.4093" stroke="white" stroke-width="1.07019" stroke-linecap="round" stroke-linejoin="round"/>
<path d="M89.2302 12.4691C89.2409 13.5334 90.9433 18.0729 92.0551 19.8646C92.0551 19.8646 87.2858 22.2292 82.1395 27.2743C82.1395 27.2743 79.4302 30.1214 78.6653 31.5672C78.6653 31.5672 84.0767 36.4224 88.9971 36.7985C93.9176 37.1746 97.9094 31.6541 98.5232 27.8206C99.1369 23.9872 98.7366 22.8537 97.527 20.6433C96.3173 18.433 90.8241 10.3794 90.8241 10.3794L89.2302 12.4691Z" stroke="white" stroke-width="1.07019" stroke-linecap="round" stroke-linejoin="round"/>
<path d="M91.7758 12.1054C91.7758 12.1054 90.9148 8.2258 89.0221 5.19594C87.2432 2.34701 83.7405 1.02366 80.5723 2.14301C77.9235 3.08141 77.2813 5.08773 77.2813 5.08773C77.2813 5.08773 75.9222 -0.0265054 70.2102 0.000103474C69.2107 0.0056345 68.2229 0.214415 67.3071 0.613677C66.3914 1.01294 65.5669 1.59429 64.8841 2.32217C63.9253 3.30845 63.2758 4.55232 63.0155 5.90126C62.7551 7.25021 62.8951 8.6456 63.4183 9.91636C63.4183 9.91636 52.8196 6.86697 49.2992 18.5536C48.9434 19.7333 49.228 21.7343 49.5856 22.9121C51.7558 30.0575 65.5726 27.1696 70.3187 23.2669C75.5273 18.9705 77.5037 15.396 77.8541 12.705C77.4112 14.5179 85.8449 20.2885 91.7758 12.1054Z" fill="white"/>
<path d="M88.8929 27.6024C88.8929 27.6024 88.6522 29.0109 88.5808 30.1994" stroke="white" stroke-width="1.42692" stroke-linecap="round" stroke-linejoin="round"/>
<path d="M79.8428 25.6191L83.84 30.5755L85.0016 28.5905" stroke="white" stroke-width="1.42692" stroke-linecap="round" stroke-linejoin="round"/>
<path d="M78.66 27.7149C78.9121 27.4605 78.7969 26.9395 78.4028 26.5511C78.0087 26.1627 77.4848 26.054 77.2328 26.3084C76.9807 26.5627 77.0959 27.0838 77.49 27.4722C77.8841 27.8606 78.408 27.9692 78.66 27.7149Z" fill="white"/>
<path d="M83.7264 23.8137C83.9785 23.5594 83.8633 23.0383 83.4692 22.6499C83.0751 22.2616 82.5512 22.1529 82.2992 22.4072C82.0471 22.6616 82.1623 23.1827 82.5564 23.571C82.9505 23.9594 83.4744 24.0681 83.7264 23.8137Z" fill="white"/>
<path d="M81.9171 17.7394C81.9171 18.2716 80.1382 19.4743 78.498 18.8037" stroke="white" stroke-width="1.42692" stroke-linecap="round" stroke-linejoin="round"/>
<path d="M74.234 22.9672C74.234 22.9672 72.633 23.9162 73.3659 25.2733" stroke="white" stroke-width="1.42692" stroke-linecap="round" stroke-linejoin="round"/>
<path d="M158.933 32.5393C158.933 32.5393 148.701 34.0507 145.337 41.212" stroke="white" stroke-width="1.07019" stroke-linecap="round" stroke-linejoin="round"/>
<path d="M152.128 53.3492C150.052 53.5834 145.699 64.4788 132.637 49.9788" stroke="white" stroke-width="1.07019" stroke-linecap="round" stroke-linejoin="round"/>
<path d="M92.1741 48.4657C92.1741 48.4657 89.5342 60.4805 93.0155 65.8254" stroke="white" stroke-width="1.07019" stroke-linecap="round" stroke-linejoin="round"/>
<path d="M112.758 41.6183C112.758 41.6183 110.459 56.2833 115.044 62.4673" stroke="white" stroke-width="1.07019" stroke-linecap="round" stroke-linejoin="round"/>
<path d="M159.308 45.8596C150.344 45.8596 143.077 54.4224 143.077 64.9843V73.1799H175.539V64.9843C175.539 54.4224 168.272 45.8596 159.308 45.8596Z" fill="#939393"/>
<path fill-rule="evenodd" clip-rule="evenodd" d="M225.752 58.3605L225.651 72.3798L221.44 67.4181L217.706 71.8175V58.3605H225.752Z" fill="#6D6D6D"/>
<path d="M200.372 58.3696H228.246" stroke="white" stroke-width="1.07019" stroke-linecap="round" stroke-linejoin="round"/>
<path d="M193.716 45.9962C194.351 46.7838 197.768 51.0732 198.519 52.9411C199.339 55.0007 198.489 55.7883 197.122 55.0911C196.864 54.9636 196.618 54.8134 196.386 54.6423C196.63 55.7947 196.674 56.9804 196.516 58.1476C196.203 60.3633 194.534 60.1397 193.579 58.4048C193.401 60.1451 192.905 60.6559 192.262 60.6471C191.321 60.6347 190.227 60.381 190.274 59.008C189.277 60.1362 187.118 58.5946 187.072 57.0318C187.018 55.3324 187.093 50.9739 185.629 49.113L185.013 48.5223C185.013 48.5223 182.966 52.6555 180.788 53.2409C178.611 53.8263 177.455 52.4036 179.623 50.5357C181.011 49.3383 180.762 48.595 180.404 48.2154C179.936 47.7231 179.514 47.1886 179.145 46.6189L178.657 45.8596H159.308C168.272 45.8596 175.539 54.4649 175.539 65.0819V69.6941H128.071C127.612 69.6941 127.171 69.876 126.847 70.1997C126.522 70.5233 126.34 70.9624 126.34 71.4201V71.4503C126.34 71.9081 126.522 72.3471 126.847 72.6708C127.171 72.9945 127.612 73.1763 128.071 73.1763H173.561V136H183.66V73.3165H208.006V65.0819C208 55.2455 201.762 47.1351 193.716 45.9962Z" fill="#6D6D6D"/>
<path d="M196.338 54.6158C196.581 54.7979 196.841 54.9571 197.113 55.0912C198.48 55.7883 199.33 55.0007 198.51 52.9412C197.69 50.8817 193.621 45.8721 193.621 45.8721L192.472 44.6516C188.737 41.3699 179.066 39.9152 178.344 39.9472C174.29 40.1246 172.474 45.3328 172.474 45.3328H178.318L179.141 46.6189C179.511 47.1887 179.932 47.7231 180.401 48.2154C180.756 48.5951 181.007 49.3383 179.62 50.5357C177.451 52.4037 178.608 53.8264 180.785 53.241C182.962 52.6556 185.01 48.5223 185.01 48.5223L185.972 49.4448" stroke="white" stroke-width="1.07019" stroke-linecap="round" stroke-linejoin="round"/>
<path d="M193.871 49.2461C194.175 49.6097 197.167 53.4716 196.507 58.1477C196.217 60.2001 194.762 60.1593 193.792 58.7632" stroke="white" stroke-width="1.07019" stroke-linecap="round" stroke-linejoin="round"/>
<path d="M191.556 48.9055C192.787 50.7421 193.493 52.8779 193.599 55.0841C193.824 59.5562 193.195 60.6613 192.254 60.6471C191.313 60.633 190.219 60.3811 190.265 59.008" stroke="white" stroke-width="1.07019" stroke-linecap="round" stroke-linejoin="round"/>
<path d="M189.032 48.9056C189.759 49.7837 191.039 54.5165 190.734 57.6954C190.43 60.8743 187.12 58.9673 187.059 57.0302C187.002 55.1942 187.095 50.2502 185.232 48.7104" stroke="white" stroke-width="1.07019" stroke-linecap="round" stroke-linejoin="round"/>
<path d="M125.032 125.202C123.985 124.507 121.343 125.477 118.546 126.846C119.47 126.164 120.384 125.447 121.236 124.718C125.468 121.094 123.824 118.252 121.414 117.631C120.42 117.374 118.865 118.835 116.805 120.606C119.295 113.402 112.205 110.688 110.436 110.494C109.622 110.402 108.798 110.431 107.992 110.581C106.147 108.19 103.62 105.302 102.906 105.215C101.14 104.999 100.624 112.632 100.594 113.171L99.0176 113.741C98.5445 113.912 98.0912 114.133 97.6657 114.401C95.5008 112.627 93.0067 110.831 92.3717 110.888C90.8062 111.027 91.6227 117.807 91.8985 119.804C91.7052 120.121 91.5408 120.455 91.4075 120.801C91.3363 120.978 91.2776 121.166 91.2296 121.347L80.1453 136H115.684V134.996C116.734 134.641 118.132 134.169 120.131 133.607C125.922 131.98 127.519 126.855 125.032 125.202Z" stroke="white" stroke-width="1.07019" stroke-linecap="round" stroke-linejoin="round"/>
<path d="M93.197 111.731C93.197 111.731 92.0567 113.077 94.0989 118.401" stroke="white" stroke-width="1.07019" stroke-linecap="round" stroke-linejoin="round"/>
<path d="M103.106 105.863C103.106 105.863 101.919 110.709 103.639 112.671" stroke="white" stroke-width="1.07019" stroke-linecap="round" stroke-linejoin="round"/>
<path d="M104.126 118.324C104.496 118.127 104.543 117.495 104.23 116.911C103.917 116.328 103.364 116.015 102.994 116.212C102.624 116.41 102.578 117.042 102.89 117.625C103.203 118.209 103.756 118.522 104.126 118.324Z" fill="white"/>
<path d="M109.534 116.161C109.904 115.963 109.951 115.331 109.638 114.747C109.326 114.164 108.772 113.851 108.402 114.048C108.032 114.246 107.986 114.878 108.298 115.461C108.611 116.045 109.164 116.358 109.534 116.161Z" fill="white"/>
<path d="M108.656 117.663L108.122 118.892C108.079 118.981 108.005 119.052 107.915 119.092C107.825 119.132 107.723 119.139 107.628 119.112L106.395 118.757C106.1 118.672 106.091 118.314 106.381 118.172L108.145 117.299C108.451 117.143 108.779 117.379 108.656 117.663Z" fill="white"/>
<path d="M107.802 118.635C108.158 119.295 109.248 119.699 110.321 119.699" stroke="white" stroke-width="1.07019" stroke-linecap="round" stroke-linejoin="round"/>
<path d="M107.839 118.617C108.195 119.277 108.017 120.159 107.256 121.076" stroke="white" stroke-width="1.07019" stroke-linecap="round" stroke-linejoin="round"/>
<path d="M102.33 120.579C102.33 120.579 95.668 118.477 91.8345 124.319" stroke="white" stroke-width="1.07019" stroke-linecap="round" stroke-linejoin="round"/>
<path d="M102.769 121.413C102.769 121.413 95.8316 120.622 93.1846 127.089" stroke="white" stroke-width="1.07019" stroke-linecap="round" stroke-linejoin="round"/>
<path d="M117.063 119.701C116.604 121.841 113.218 131.478 100.839 130.492" stroke="white" stroke-width="1.07019" stroke-linecap="round" stroke-linejoin="round"/>
<path d="M1.5 136H271.5" stroke="white" stroke-width="1.07019" stroke-linecap="round" stroke-linejoin="round"/>
</svg>
