<svg width="240" height="164" viewBox="0 0 240 164" fill="none" xmlns="http://www.w3.org/2000/svg">
<path d="M79.5202 162.339H31.7744V136.492H78.0923" fill="#6D6D6D"/>
<path d="M45.9592 136.354L45.9712 151.173L50.1132 144.453L54.2552 151.173L57.9605 145.164L61.3447 150.656V136.269" fill="white"/>
<path d="M52.7337 52.5422L51.3198 47.3121" stroke="white" stroke-width="1.19654" stroke-linecap="round" stroke-linejoin="round"/>
<path d="M80.2501 95.4239C80.5991 91.6895 81.6859 84.7651 72.686 80.4666C63.686 76.1681 58.1959 71.8954 55.7969 62.3311" stroke="white" stroke-width="1.19654" stroke-linecap="round" stroke-linejoin="round"/>
<path d="M57.4593 60.9441L55.2162 52.6405C54.9835 51.7792 54.094 51.2689 53.2293 51.5007L52.0758 51.8098C51.2111 52.0416 50.6988 52.9276 50.9314 53.7889L53.1745 62.0925C53.4072 62.9538 54.2968 63.4641 55.1614 63.2323L56.315 62.9232C57.1796 62.6915 57.692 61.8054 57.4593 60.9441Z" fill="#6D6D6D"/>
<path d="M36.9194 78.0014L31.4832 77.9974" stroke="white" stroke-width="1.19654" stroke-linecap="round" stroke-linejoin="round"/>
<path d="M46.2924 75.6456H37.6594C36.764 75.6456 36.0381 76.3687 36.0381 77.2605V78.4504C36.0381 79.3423 36.764 80.0653 37.6594 80.0653H46.2924C47.1878 80.0653 47.9137 79.3423 47.9137 78.4504V77.2605C47.9137 76.3687 47.1878 75.6456 46.2924 75.6456Z" fill="#6D6D6D"/>
<path d="M46.6514 77.6479C46.6514 77.6479 66.6315 76.5275 75.9665 93.2428" stroke="white" stroke-width="1.19654" stroke-linecap="round" stroke-linejoin="round"/>
<path d="M164.805 115.127C170.168 115.127 173.979 116.374 174.234 128.394C174.489 140.413 173.955 151.278 184.484 151.139C194.214 151.01 192.053 147.089 196.55 147.262" stroke="white" stroke-width="1.19654" stroke-linecap="round" stroke-linejoin="round"/>
<path d="M206.844 142.438H195.6C194.883 142.438 194.302 143.016 194.302 143.731V150.707C194.302 151.421 194.883 152 195.6 152H206.844C207.561 152 208.142 151.421 208.142 150.707V143.731C208.142 143.016 207.561 142.438 206.844 142.438Z" fill="#6D6D6D"/>
<path d="M203.384 142.423L203.37 152.015" stroke="white" stroke-width="1.19654" stroke-linejoin="round"/>
<path d="M205.863 144.994H213.273" stroke="white" stroke-width="1.19654" stroke-linecap="round" stroke-linejoin="round"/>
<path d="M205.863 148.569H213.273" stroke="white" stroke-width="1.19654" stroke-linecap="round" stroke-linejoin="round"/>
<path d="M169.043 6.85779V11.7522" stroke="white" stroke-width="1.19654" stroke-linecap="round" stroke-linejoin="round"/>
<path d="M171.5 9.30493H166.588" stroke="white" stroke-width="1.19654" stroke-linecap="round" stroke-linejoin="round"/>
<path d="M134.1 24.7788V29.6712" stroke="white" stroke-width="1.19654" stroke-linecap="round" stroke-linejoin="round"/>
<path d="M136.555 27.226H131.643" stroke="white" stroke-width="1.19654" stroke-linecap="round" stroke-linejoin="round"/>
<path d="M105.902 1V5.89242" stroke="white" stroke-width="1.19654" stroke-linecap="round" stroke-linejoin="round"/>
<path d="M108.357 3.44727H103.445" stroke="white" stroke-width="1.19654" stroke-linecap="round" stroke-linejoin="round"/>
<path d="M76.3193 40.8048V45.6972" stroke="white" stroke-width="1.19654" stroke-linecap="round" stroke-linejoin="round"/>
<path d="M78.7763 43.25H73.8625" stroke="white" stroke-width="1.19654" stroke-linecap="round" stroke-linejoin="round"/>
<path d="M42.4136 21.8489V26.7433" stroke="white" stroke-width="1.19654" stroke-linecap="round" stroke-linejoin="round"/>
<path d="M44.8683 24.296H39.9565" stroke="white" stroke-width="1.19654" stroke-linecap="round" stroke-linejoin="round"/>
<path d="M37.0513 94.3929V99.2854" stroke="white" stroke-width="1.19654" stroke-linecap="round" stroke-linejoin="round"/>
<path d="M39.506 96.8401H34.5942" stroke="white" stroke-width="1.19654" stroke-linecap="round" stroke-linejoin="round"/>
<path d="M27.1897 53.8989V58.7933" stroke="white" stroke-width="1.19654" stroke-linecap="round" stroke-linejoin="round"/>
<path d="M29.6464 56.3461H24.7327" stroke="white" stroke-width="1.19654" stroke-linecap="round" stroke-linejoin="round"/>
<path d="M191.273 67.9425V72.8369" stroke="white" stroke-width="1.19654" stroke-linecap="round" stroke-linejoin="round"/>
<path d="M193.73 70.3896H188.818" stroke="white" stroke-width="1.19654" stroke-linecap="round" stroke-linejoin="round"/>
<path d="M200.356 27.363V32.2574" stroke="white" stroke-width="1.19654" stroke-linecap="round" stroke-linejoin="round"/>
<path d="M202.811 29.8102H197.899" stroke="white" stroke-width="1.19654" stroke-linecap="round" stroke-linejoin="round"/>
<path d="M218.52 99.2178V104.11" stroke="white" stroke-width="1.19654" stroke-linecap="round" stroke-linejoin="round"/>
<path d="M220.977 101.663H216.063" stroke="white" stroke-width="1.19654" stroke-linecap="round" stroke-linejoin="round"/>
<path d="M107.832 134.661L107.832 134.661L107.835 134.657C108.952 133.393 109.5 131.342 109.501 128.529C109.503 125.715 108.955 123.674 107.835 122.431L107.835 122.431L107.832 122.429C107.572 122.16 107.26 121.948 106.915 121.804C106.57 121.66 106.2 121.587 105.826 121.59C105.452 121.585 105.081 121.656 104.736 121.8C104.39 121.945 104.078 122.159 103.82 122.429L103.82 122.429L103.818 122.431C102.708 123.653 102.164 125.695 102.163 128.529C102.161 131.363 102.705 133.414 103.817 134.657L103.817 134.657L103.82 134.66C104.08 134.928 104.392 135.14 104.738 135.281C105.083 135.423 105.453 135.492 105.826 135.485C106.199 135.49 106.569 135.42 106.913 135.278C107.258 135.137 107.571 134.927 107.832 134.661ZM107.323 120.838C107.786 121.039 108.211 121.317 108.582 121.659C109.209 122.331 109.696 123.242 110.039 124.396C110.731 127.109 110.731 129.952 110.039 132.665C109.696 133.821 109.209 134.731 108.581 135.402C108.212 135.746 107.786 136.024 107.323 136.223C106.85 136.421 106.343 136.523 105.83 136.523C105.317 136.523 104.81 136.421 104.337 136.223C103.871 136.026 103.443 135.748 103.073 135.402C102.452 134.734 101.966 133.823 101.619 132.665C100.922 129.952 100.922 127.109 101.619 124.396C101.966 123.242 102.452 122.331 103.073 121.659C103.444 121.315 103.871 121.037 104.337 120.838C104.81 120.641 105.318 120.54 105.83 120.54C106.342 120.54 106.85 120.641 107.323 120.838Z" fill="white" stroke="white" stroke-width="0.199423"/>
<path d="M171.325 104.797H150.04C149.951 104.796 149.863 104.775 149.783 104.736C149.682 104.736 149.582 104.71 149.493 104.661C149.405 104.612 149.33 104.541 149.276 104.456L137.558 85.7839V161.133C137.558 161.291 137.495 161.442 137.383 161.554C137.271 161.666 137.119 161.729 136.96 161.729C136.801 161.729 136.649 161.666 136.537 161.554C136.425 161.442 136.362 161.291 136.362 161.133V85.192L116.938 104.807C116.897 104.923 116.821 105.023 116.721 105.094C116.621 105.165 116.501 105.204 116.378 105.205H76.6945C76.6263 105.204 76.5588 105.191 76.4951 105.167V163H171.466V104.778C171.42 104.79 171.372 104.797 171.325 104.797ZM127.669 137.39C127.669 138.18 127.354 138.938 126.793 139.497C126.232 140.055 125.471 140.369 124.678 140.369H87.2998C86.5065 140.369 85.7456 140.055 85.1846 139.497C84.6237 138.938 84.3085 138.18 84.3085 137.39V120.086C84.3085 119.296 84.6237 118.538 85.1846 117.98C85.7456 117.421 86.5065 117.107 87.2998 117.107H124.678C125.471 117.107 126.232 117.421 126.793 117.98C127.354 118.538 127.669 119.296 127.669 120.086V137.39ZM158.246 132.142V152.301H152.713V131.796H148.216L155.827 110.602L163.092 132.142H158.246Z" fill="white"/>
<path d="M96.226 120.48C96.3088 120.479 96.3909 120.494 96.4676 120.525C96.5443 120.556 96.614 120.602 96.6726 120.661C96.7311 120.719 96.7773 120.788 96.8085 120.865C96.8397 120.941 96.8552 121.023 96.8542 121.106V131.263V131.363L96.226 120.48ZM96.226 120.48C96.1253 120.474 96.0248 120.494 95.9343 120.538M96.226 120.48L95.9343 120.538M95.9343 120.538C95.8437 120.582 95.7663 120.649 95.7095 120.732L95.9343 120.538ZM96.7544 131.363V131.463H96.8542H98.7487C98.889 131.463 99.0234 131.518 99.1225 131.617C99.2216 131.716 99.2771 131.849 99.2771 131.989C99.2771 132.128 99.2216 132.262 99.1225 132.361C99.0234 132.459 98.889 132.515 98.7487 132.515H96.8542H96.7544V132.615L96.7544 136.003L96.7545 136.004C96.755 136.108 96.7244 136.21 96.6665 136.297C96.6086 136.384 96.526 136.452 96.4292 136.492C96.3325 136.532 96.2258 136.543 96.123 136.522C96.0201 136.502 95.9257 136.452 95.8517 136.378L95.8508 136.377C95.8012 136.328 95.762 136.271 95.7356 136.207C95.7093 136.143 95.6963 136.074 95.6975 136.005H95.6975V136.003V132.615V132.515H95.5978L88.6619 132.515L88.6603 132.515C88.5908 132.516 88.5218 132.503 88.4574 132.477C88.3931 132.451 88.3347 132.412 88.2857 132.363L88.2844 132.362C88.2348 132.314 88.1958 132.256 88.1698 132.193C88.1438 132.129 88.1314 132.06 88.1334 131.992L88.1335 131.992L88.1334 131.987C88.1318 131.879 88.1645 131.772 88.2271 131.682L88.2273 131.682L95.7914 120.789L95.7918 120.788C95.8388 120.72 95.903 120.664 95.978 120.628C96.0531 120.591 96.1365 120.574 96.22 120.579L96.2199 120.58L96.2273 120.58C96.2968 120.579 96.3658 120.592 96.4302 120.618C96.4946 120.644 96.5531 120.682 96.6022 120.731C96.6513 120.78 96.6901 120.838 96.7162 120.903C96.7424 120.967 96.7554 121.035 96.7545 121.104L96.7544 121.104V121.106V131.363ZM95.5978 131.463H95.6975V131.363V123.132V122.813L95.5159 123.075L89.7945 131.306L89.6856 131.463H89.8764H95.5978Z" fill="white" stroke="white" stroke-width="0.199423"/>
<path d="M120.193 120.48C120.275 120.479 120.357 120.494 120.434 120.525C120.511 120.556 120.581 120.602 120.639 120.661C120.698 120.719 120.744 120.788 120.775 120.865C120.806 120.941 120.822 121.023 120.821 121.106V131.263V131.363L120.193 120.48ZM120.193 120.48C120.092 120.474 119.991 120.494 119.901 120.538M120.193 120.48L119.901 120.538M119.901 120.538C119.81 120.582 119.733 120.649 119.676 120.732L119.901 120.538ZM120.721 131.363V131.463H120.821H122.715C122.856 131.463 122.99 131.518 123.089 131.617C123.188 131.716 123.244 131.849 123.244 131.989C123.244 132.128 123.188 132.262 123.089 132.361C122.99 132.459 122.856 132.515 122.715 132.515H120.821H120.721V132.615L120.721 136.003L120.721 136.004C120.722 136.108 120.691 136.21 120.633 136.297C120.575 136.384 120.493 136.452 120.396 136.492C120.299 136.532 120.192 136.543 120.09 136.522C119.987 136.502 119.892 136.452 119.818 136.378L119.817 136.377C119.768 136.328 119.729 136.271 119.702 136.207C119.676 136.143 119.663 136.074 119.664 136.005H119.664V136.003V132.615V132.515H119.564L112.628 132.515L112.627 132.515C112.557 132.516 112.488 132.503 112.424 132.477C112.36 132.451 112.301 132.412 112.252 132.363L112.251 132.362C112.201 132.314 112.162 132.256 112.136 132.193C112.11 132.129 112.098 132.06 112.1 131.992L112.1 131.992L112.1 131.987C112.098 131.879 112.131 131.772 112.194 131.682L112.194 131.682L119.758 120.789L119.758 120.788C119.805 120.72 119.87 120.664 119.945 120.628C120.02 120.591 120.103 120.574 120.187 120.579L120.186 120.58L120.194 120.58C120.263 120.579 120.332 120.592 120.397 120.618C120.461 120.644 120.52 120.682 120.569 120.731C120.618 120.78 120.657 120.838 120.683 120.903C120.709 120.967 120.722 121.035 120.721 121.104L120.721 121.104V121.106V131.363ZM119.564 131.463H119.664V131.363V123.132V122.813L119.482 123.075L113.761 131.306L113.652 131.463H113.843H119.564Z" fill="white" stroke="white" stroke-width="0.199423"/>
<path d="M115.771 104.021V100.507H54.4209L54.3491 104.042L115.771 104.021Z" fill="white"/>
<path d="M193.303 100.094H150.638V103.607L193.301 103.625L193.299 100.102" fill="white"/>
<path d="M193.291 98.7291L171.109 78.7781H164.171C164.171 78.7781 164.662 85.5734 158.55 86.5249C157.251 86.7831 154.023 84.6577 152.465 80.3493C152.389 79.7653 153.706 88.8787 148.401 89.3376C141.365 89.3952 131.909 79.2071 131.909 79.2071H76.4932L54.4729 99.325H115.997L134.116 81.0207C134.229 80.9145 134.379 80.856 134.534 80.8576C134.689 80.8592 134.837 80.9207 134.948 81.0291C135.058 81.1376 135.122 81.2845 135.126 81.439C135.129 81.5934 135.073 81.7433 134.968 81.8569L116.966 100.032V103.081L136.352 83.4957C136.431 83.4179 136.529 83.3629 136.637 83.3368L136.693 83.2931C136.827 83.2095 136.989 83.1824 137.144 83.2178C137.298 83.2532 137.432 83.3481 137.517 83.4818L149.44 102.483V99.7223L141.443 87.1903C141.358 87.0568 141.33 86.895 141.364 86.7406C141.399 86.5862 141.494 86.4518 141.628 86.367C141.762 86.2822 141.924 86.2539 142.079 86.2883C142.234 86.3228 142.369 86.4172 142.454 86.5507L150.341 98.9119H193.287" fill="white"/>
<path d="M136.436 83.6474C136.487 83.5569 136.56 83.4812 136.65 83.4278C136.739 83.3743 136.841 83.345 136.945 83.3428C136.845 83.3169 136.74 83.3169 136.639 83.3428C136.541 83.4206 136.47 83.5271 136.436 83.6474Z" fill="#111111"/>
<path d="M159.961 44.7795C155.973 43.689 153.099 44.3624 153.099 44.3624C150.562 38.735 142.53 33.5069 142.53 33.5069C136.88 36.4368 139.474 48.3848 139.474 48.3848L136.246 49.5905C132.21 44.708 126.558 39.3667 124.929 39.2514C121.165 38.9853 121.036 55.7939 121.036 55.7939C111.88 61.2187 102.515 66.8877 95.2286 71.7722C95.4978 68.2822 97.167 63.7731 101.235 58.2649C108.674 48.1841 110.317 34.8516 103.455 26.789C93.8246 15.4667 85.0022 19.3203 79.7554 24.3199C74.4487 29.3733 73.641 38.2761 81.949 32.3607C90.3068 26.4017 94.4049 29.4885 98.3256 36.842C102.246 44.1955 90.1373 55.5138 84.4877 64.6988C81.3188 69.8514 79.7573 74.9424 79.8251 79.1992H118.154C118.076 79.2866 118.001 79.372 117.933 79.4575L119.833 79.1992H132.036C136.908 83.8692 148.329 92.5714 150.879 87.5559C152.166 85.0312 152.728 82.2622 152.194 79.6342C153.324 81.7855 156.862 87.8638 159.937 86.1614C162.602 84.6876 164.723 80.5599 164.207 76.2296C166.189 74.4081 167.715 72.4694 168.67 70.4354C176.453 56.4832 163.501 45.7508 159.961 44.7795Z" stroke="white" stroke-width="1.19654" stroke-linecap="round" stroke-linejoin="round"/>
<path d="M163.94 53.0945C168.698 45.8562 179.943 44.8232 179.943 44.8232" stroke="white" stroke-width="1.19654" stroke-linecap="round" stroke-linejoin="round"/>
<path d="M165.93 58.9523C167.055 56.7116 175.359 52.0596 181.587 53.8692" stroke="white" stroke-width="1.19654" stroke-linecap="round" stroke-linejoin="round"/>
<path d="M138.687 65.0687C135.283 63.9597 128.476 63.1986 123.267 68.1828" stroke="white" stroke-width="1.19654" stroke-linecap="round" stroke-linejoin="round"/>
<path d="M138.396 62.0839C135.109 59.24 126.372 58.463 120.318 63.0318" stroke="white" stroke-width="1.19654" stroke-linecap="round" stroke-linejoin="round"/>
<path d="M126.747 40.6876C126.747 40.6876 122.422 50.9392 127.18 54.3935" stroke="white" stroke-width="1.19654" stroke-linecap="round" stroke-linejoin="round"/>
<path d="M143.441 34.9152C143.441 34.9152 141.191 42.662 143.267 47.9239" stroke="white" stroke-width="1.19654" stroke-linecap="round" stroke-linejoin="round"/>
<path d="M144.304 60.6156C145.117 60.3374 145.418 59.0766 144.977 57.7995C144.537 56.5224 143.521 55.7126 142.708 55.9907C141.896 56.2689 141.595 57.5297 142.035 58.8068C142.476 60.0839 143.492 60.8937 144.304 60.6156Z" fill="white"/>
<path d="M155.98 56.911C156.793 56.6328 157.094 55.372 156.653 54.0949C156.212 52.8178 155.197 52.008 154.384 52.2861C153.572 52.5643 153.27 53.8251 153.711 55.1022C154.152 56.3793 155.168 57.1891 155.98 56.911Z" fill="white"/>
<path d="M154.932 59.3083L153.496 61.6652C153.391 61.8292 153.225 61.9457 153.035 61.9899C152.844 62.0341 152.644 62.0024 152.477 61.9017L150.253 60.5802C150.135 60.5134 150.039 60.4127 149.978 60.2911C149.918 60.1695 149.896 60.0326 149.914 59.8981C149.932 59.7637 149.991 59.6378 150.082 59.5369C150.173 59.436 150.293 59.3646 150.425 59.3321L154.084 58.2967C154.716 58.1159 155.255 58.7657 154.932 59.3083Z" fill="white"/>
<path d="M151.099 64.1418C153.39 67.0374 153.316 63.4304 152.954 61.5305C153.691 63.182 155.644 65.5767 155.945 62.9216" stroke="white" stroke-width="1.19654" stroke-linecap="round" stroke-linejoin="round"/>
<path d="M148.241 88.9782C148.01 88.3465 144.392 81.1797 140.816 78.4802" stroke="white" stroke-width="1.19654" stroke-linecap="round" stroke-linejoin="round"/>
<path d="M145.95 76.3549C146.121 76.4125 150.337 83.3071 150.505 88.0148" stroke="white" stroke-width="1.19654" stroke-linecap="round" stroke-linejoin="round"/>
<path d="M117.925 79.4615C121.211 75.4113 136.272 67.5711 144.647 71.3631C153.023 75.1551 153.729 81.9604 150.875 87.5599" stroke="white" stroke-width="1.19654" stroke-linecap="round" stroke-linejoin="round"/>
<path d="M154.728 75.4886C154.728 75.4886 158.621 82.8541 158.707 86.4295" stroke="white" stroke-width="1.19654" stroke-linecap="round" stroke-linejoin="round"/>
<path d="M159.572 73.8579C159.572 73.8579 162.426 82.4291 160.741 85.7463" stroke="white" stroke-width="1.19654" stroke-linecap="round" stroke-linejoin="round"/>
<path d="M147.846 72.6224C148.897 70.9399 158.134 65.4416 162.227 71.1624C162.97 72.2012 163.782 74.2254 164.113 75.3218" stroke="white" stroke-width="1.19654" stroke-linecap="round" stroke-linejoin="round"/>
<path d="M1.5 162.499H238.5" stroke="#111111" stroke-width="1.19654" stroke-linecap="round" stroke-linejoin="round"/>
</svg>
