<svg width="269" height="134" viewBox="0 0 269 134" fill="none" xmlns="http://www.w3.org/2000/svg">
<path d="M192.681 79.2428H215.627C216.134 79.2428 216.62 79.4426 216.978 79.7982C217.337 80.1538 217.538 80.6361 217.538 81.139V98.3908C217.538 98.8937 217.337 99.376 216.978 99.7316C216.62 100.087 216.134 100.287 215.627 100.287H192.486" stroke="white" stroke-width="0.900168" stroke-linecap="round" stroke-linejoin="round"/>
<path d="M217.538 89.9122H192.681" stroke="white" stroke-width="0.900168" stroke-linecap="round" stroke-linejoin="round"/>
<path d="M211.366 79.3904V101.098" stroke="white" stroke-width="0.900168" stroke-linecap="round" stroke-linejoin="round"/>
<path d="M127.274 25.8842V8.35432C127.274 6.40383 128.055 4.53323 129.445 3.15403C130.836 1.77483 132.721 1 134.688 1H185.113C186.087 1 187.051 1.19024 187.95 1.55984C188.849 1.92945 189.666 2.47119 190.355 3.15412C191.043 3.83705 191.589 4.6478 191.961 5.54006C192.334 6.43232 192.525 7.38861 192.525 8.35432V124.759C192.525 126.709 191.744 128.58 190.354 129.959C188.964 131.337 187.079 132.112 185.113 132.112H134.688C132.722 132.112 130.836 131.338 129.446 129.959C128.056 128.58 127.275 126.71 127.274 124.759V97.097" stroke="white" stroke-width="0.900168" stroke-linecap="round" stroke-linejoin="round"/>
<path d="M130.86 97.8733V122.534C130.86 125.38 133.259 127.686 136.218 127.686H178.082C181.041 127.686 183.44 125.38 183.44 122.534V10.8291C183.44 7.98405 181.041 5.67737 178.082 5.67737H167.888V7.82789C167.882 8.16923 167.74 8.49442 167.493 8.73202C167.246 8.96962 166.914 9.10018 166.57 9.09501H147.727C147.383 9.10018 147.051 8.96962 146.804 8.73202C146.557 8.49442 146.415 8.16923 146.409 7.82789V5.67737H136.224C133.265 5.67737 130.866 7.98405 130.866 10.8291V27.2391" stroke="white" stroke-width="0.900168" stroke-linecap="round" stroke-linejoin="round"/>
<path d="M183.148 1C185.785 2.37717 187.573 5.06607 187.573 8.15503V99.658" stroke="white" stroke-width="0.900168" stroke-linecap="round" stroke-linejoin="round"/>
<path d="M183.683 124.063C168.861 123.868 165.371 121.981 156.098 113.003C146.826 104.024 135.325 104.56 131.338 105.002" stroke="white" stroke-width="0.900168" stroke-linecap="round" stroke-linejoin="round"/>
<path d="M131.577 30.8932C135.57 30.4471 146.832 27.1469 156.1 36.1178C165.278 45.0025 168.789 54.1296 183.25 54.494" stroke="white" stroke-width="0.900168" stroke-linecap="round" stroke-linejoin="round"/>
<path d="M167.257 94.0095C165.422 93.4146 162.31 92.2248 162.385 91.151C162.497 89.6296 168.45 91.0499 168.45 91.0499L168.552 86.5005C168.552 86.5005 161.268 86.4871 156.737 87.5297L156.547 95.3331L160.164 96.3206C161.865 96.7749 163.381 97.7439 164.501 99.0928C165.843 101.493 165.723 103.076 166.001 104.307C166.137 104.858 166.471 105.341 166.94 105.665C167.409 105.989 167.981 106.133 168.549 106.069V95.7614C168.546 95.3718 168.42 94.9929 168.188 94.6785C167.956 94.364 167.63 94.13 167.257 94.0095Z" fill="#263238"/>
<path d="M106.572 121.27L106.189 125.097C106.067 126.555 105.406 127.918 104.333 128.922C102.33 130.112 100.846 130 99.7512 130.25C98.7513 130.479 98.2235 131.455 98.5369 132.5H109.331C109.331 132.5 109.908 126.954 111.335 127.054C112.762 127.154 113.702 132.75 113.702 132.75H117.934C117.934 132.75 115.717 125.268 113.518 121.331L106.572 121.27Z" fill="#263238"/>
<path d="M138.419 44.1845L133.604 43.6833V43.9272L133.653 44.131C132.491 46.9567 129.905 49.134 126.402 49.3229C121.066 49.6114 122.567 43.6298 122.669 43.2818L122.55 42.9442L117.303 42.5248L121.026 73.4278L138.716 73.639C132.667 64.4598 136.509 56.24 138.419 44.1845ZM123.835 57.7644C123.81 57.6488 123.832 57.5279 123.896 57.4284C123.96 57.3288 124.062 57.2587 124.178 57.2334L128.956 56.2028L132.805 48.7786C132.861 48.6769 132.955 48.6011 133.067 48.5673C133.18 48.5336 133.3 48.5445 133.404 48.5977C133.508 48.651 133.588 48.7424 133.625 48.8525C133.662 48.9627 133.654 49.0829 133.604 49.1875L129.659 56.7992C129.629 56.8572 129.587 56.9081 129.535 56.9481C129.484 56.9882 129.423 57.0166 129.359 57.0312L124.37 58.1094C124.339 58.1152 124.306 58.1182 124.274 58.1183C124.171 58.1181 124.071 58.0829 123.992 58.0185C123.912 57.954 123.856 57.8643 123.835 57.7644ZM134.849 65.3834C134.617 65.7385 134.312 66.042 133.955 66.2746C133.599 66.5073 133.197 66.6642 132.776 66.7353L124.571 68.0916C124.546 68.0938 124.521 68.0938 124.496 68.0916C124.437 68.0964 124.378 68.0896 124.321 68.0716C124.265 68.0536 124.213 68.0248 124.167 67.9867C124.122 67.9487 124.085 67.9022 124.058 67.8499C124.031 67.7976 124.015 67.7405 124.01 67.6819C124.005 67.6233 124.012 67.5644 124.03 67.5084C124.048 67.4524 124.077 67.4006 124.115 67.3558C124.154 67.3109 124.201 67.2741 124.253 67.2472C124.306 67.2204 124.364 67.2041 124.423 67.1993L132.626 65.8519C132.925 65.8023 133.21 65.6919 133.463 65.5275C133.716 65.3632 133.933 65.1485 134.098 64.8971C134.128 64.8422 134.168 64.794 134.217 64.7556C134.266 64.7171 134.323 64.6892 134.383 64.6737C134.444 64.6582 134.507 64.6554 134.569 64.6655C134.631 64.6756 134.69 64.6984 134.742 64.7324C134.794 64.7663 134.839 64.8108 134.873 64.8628C134.907 64.9149 134.93 64.9734 134.94 65.0347C134.95 65.096 134.947 65.1586 134.931 65.2187C134.915 65.2787 134.887 65.3348 134.848 65.3834H134.849Z" fill="#397DF6"/>
<path d="M116.5 85.745L119.551 93.3893C119.956 94.2758 120.613 95.026 121.442 95.5484C122.27 96.0708 123.233 96.3427 124.215 96.331L156.369 102.726L156.773 86.0588L132.409 85.1664L131.36 73.6122" stroke="white" stroke-width="0.900168" stroke-linecap="round" stroke-linejoin="round"/>
<path d="M115.966 65.4534C115.966 65.4534 102.142 81.6924 100.795 85.4089C99.4468 89.1255 101.394 121.224 101.394 121.224L116.225 121.355L114.139 87.7766L134.44 70.7747L115.966 65.4534Z" stroke="white" stroke-width="0.900168" stroke-linecap="round" stroke-linejoin="round"/>
<path d="M135.647 40.8204C136.447 40.4323 136.635 39.0477 136.065 37.7062C135.808 37.0575 135.365 36.4983 134.789 36.0985" stroke="#6D6D6D" stroke-width="0.900168" stroke-linecap="round" stroke-linejoin="round"/>
<path d="M133.358 26.1341C131.791 24.7614 131.193 18.0882 136.04 13.9701C140.946 9.80584 144.397 14.6378 145.15 15.9035C145.903 17.1691 146.285 20.5258 142.099 23.3901C137.914 26.2545 135.146 27.7016 133.358 26.1341Z" fill="#263238"/>
<path d="M132.613 28.6817L134.061 27.1127C134.183 26.984 134.279 26.8324 134.342 26.6668C134.405 26.5012 134.434 26.3249 134.428 26.148C134.422 25.9711 134.381 25.7971 134.306 25.6362C134.232 25.4753 134.126 25.3306 133.995 25.2105L133.901 25.1288C133.623 24.8928 133.263 24.7744 132.899 24.7991C132.534 24.8239 132.194 24.9898 131.952 25.2611L130.503 26.8286L132.613 28.6817Z" fill="#6D6D6D"/>
<path d="M132.477 36.4078C132.717 36.5616 132.993 36.6526 133.279 36.6721C133.565 36.6916 133.851 36.639 134.111 36.5193C134.53 36.3354 134.861 35.9972 135.033 35.5761C135.206 35.155 135.208 34.6838 135.037 34.2617C134.882 33.8996 134.601 33.605 134.245 33.4318C133.889 33.2587 133.482 33.2186 133.099 33.3188" stroke="white" stroke-width="0.900168" stroke-linecap="round" stroke-linejoin="round"/>
<path d="M122.197 32.3803C121.787 32.2493 121.343 32.2758 120.952 32.4547C120.535 32.64 120.207 32.9782 120.035 33.3985C119.864 33.8188 119.863 34.2885 120.033 34.7093C120.184 35.0606 120.453 35.3486 120.795 35.5235C121.137 35.6984 121.53 35.7492 121.906 35.6671" stroke="white" stroke-width="0.900168" stroke-linecap="round" stroke-linejoin="round"/>
<path d="M125.148 40.9379L125.249 43.4885L122.672 43.2803C122.57 43.6283 121.069 49.6099 126.405 49.3214C129.905 49.1325 132.494 46.9612 133.656 44.1295L131.59 43.8916L131.527 38.6699" stroke="white" stroke-width="0.900168" stroke-linecap="round" stroke-linejoin="round"/>
<path d="M132.854 35.1391C133.606 31.2326 131.81 27.61 128.842 27.0479C125.874 26.4857 122.859 29.1969 122.107 33.1034C121.355 37.0099 123.152 40.6325 126.119 41.1946C129.087 41.7567 132.102 39.0456 132.854 35.1391Z" stroke="white" stroke-width="0.900168" stroke-linecap="round" stroke-linejoin="round"/>
<path d="M133.551 27.8831C132.332 26.445 130.355 25.4902 128.712 25.3266C118.444 23.5806 119.984 30.1749 119.984 30.1749L122.02 30.1125C121.502 31.4614 121.486 32.7493 122.02 33.5941C122.02 33.5777 122.02 33.5614 122.02 33.545C122.192 32.3172 122.612 31.1365 123.255 30.0738L129.277 29.8879C129.109 28.9956 129.755 28.6074 130.347 28.1553C130.331 28.5048 130.326 32.2942 133.008 33.429C133.005 33.853 132.974 34.2763 132.914 34.6961C132.898 34.8136 132.878 34.9296 132.857 35.0456C133.024 35.0435 133.191 35.0331 133.356 35.0144C135.37 34.7601 135.439 30.1095 133.551 27.8831Z" fill="#263238"/>
<path d="M133.526 35.9171C132.703 36.2859 132.503 37.6869 133.076 39.0403C133.649 40.3937 134.79 41.1982 135.613 40.825L135.641 40.8116" stroke="#6D6D6D" stroke-width="0.900168" stroke-linecap="round" stroke-linejoin="round"/>
<path d="M120.946 34.7347C120.123 35.1036 119.923 36.5045 120.497 37.8579C121.023 39.0953 122.014 39.8716 122.808 39.7184" stroke="#6D6D6D" stroke-width="0.900168" stroke-linecap="round" stroke-linejoin="round"/>
<path d="M126.927 35.8144L125.677 35.7282L126.582 32.6362" stroke="white" stroke-width="0.900168" stroke-linecap="round" stroke-linejoin="round"/>
<path d="M129.961 31.3406C129.961 31.3406 129.061 30.4594 128.276 31.1422" stroke="white" stroke-width="0.900168" stroke-linecap="round" stroke-linejoin="round"/>
<path d="M125.767 30.9218C125.767 30.9218 124.604 30.4282 124.099 31.3378" stroke="white" stroke-width="0.900168" stroke-linecap="round" stroke-linejoin="round"/>
<path d="M128.912 33.9806C129.142 33.9806 129.329 33.695 129.329 33.3426C129.329 32.9902 129.142 32.7046 128.912 32.7046C128.681 32.7046 128.495 32.9902 128.495 33.3426C128.495 33.695 128.681 33.9806 128.912 33.9806Z" fill="white"/>
<path d="M125.138 33.4767C125.173 33.1244 125.015 32.8209 124.787 32.7989C124.558 32.777 124.345 33.0448 124.311 33.3971C124.276 33.7495 124.434 34.053 124.662 34.075C124.891 34.0969 125.104 33.8291 125.138 33.4767Z" fill="white"/>
<path d="M126.168 38.0319C126.168 38.0319 127.667 38.9777 128.378 37.4727" stroke="white" stroke-width="0.900168" stroke-linecap="round" stroke-linejoin="round"/>
<path d="M120.664 40.0382H112.247V29.7526H91.056V40.0382H87.4281C86.5303 40.0382 85.6693 40.392 85.0344 41.0218C84.3996 41.6516 84.043 42.5057 84.043 43.3964V44.3675C87.7699 44.0701 91.2524 46.4883 91.6032 46.6727C91.996 46.8779 92.0859 47.69 91.182 47.6855C90.278 47.681 87.2017 47.0326 87.2017 47.0326C88.5359 47.4788 91.5178 48.5198 91.7217 48.7667C92.035 49.1415 91.4893 49.8182 90.5793 49.5178L86.7654 48.2938C86.7654 48.2938 90.3799 50.193 90.6797 50.4621C90.9796 50.7313 89.5089 51.3946 87.8163 50.5216C86.1238 49.6486 85.9679 49.7334 85.9679 49.7334C85.9679 49.7334 88.7173 50.9767 89.0681 51.3024C89.419 51.6281 87.7309 52.2543 85.5901 51.5002C85.064 51.316 84.5477 51.1055 84.043 50.8697V71.4156C84.045 72.305 84.4025 73.1572 85.0371 73.7854C85.6717 74.4136 86.5316 74.7664 87.4281 74.7664H120.664C121.562 74.7664 122.422 74.4127 123.057 73.7832C123.692 73.1537 124.048 72.2999 124.048 71.4097V43.3964C124.048 42.9554 123.961 42.5188 123.791 42.1114C123.621 41.7039 123.372 41.3337 123.057 41.0219C122.743 40.71 122.37 40.4626 121.96 40.2939C121.549 40.1251 121.109 40.0382 120.664 40.0382ZM107.158 61.9376L103.98 62.8299C103.586 62.6113 103.168 62.3837 102.892 62.2231C102.225 61.8468 102.504 61.2356 103.265 61.1954C103.854 61.1597 105.952 61.6089 107.158 61.9376ZM111.732 67.6545C110.1 68.5572 107.823 68.0456 107.823 68.0456C106.174 69.6518 104.105 68.9275 104.418 68.5617C104.731 68.1958 107.34 66.6476 107.34 66.6476C107.34 66.6476 107.175 66.5792 105.581 67.6411C103.988 68.7029 102.442 68.2018 102.712 67.8998C102.982 67.5979 106.38 65.2972 106.38 65.2972L102.707 66.9421C101.833 67.3436 101.208 66.7279 101.48 66.3174C101.658 66.0497 104.521 64.6815 105.803 64.0866C105.803 64.0866 102.805 65.0771 101.896 65.1827C100.988 65.2883 100.997 64.4658 101.36 64.2175C101.723 63.9691 105.899 61.6981 110.242 62.0238L114.374 61.2936L116.212 67.1607L111.732 67.6545Z" fill="#6D6D6D"/>
<path d="M99.3838 29.9757V39.6293" stroke="#111111" stroke-width="0.900168" stroke-linecap="round" stroke-linejoin="round"/>
<path d="M93.6331 30.2374V33.0632H97.0242V30.3728" stroke="#111111" stroke-width="0.900168" stroke-linecap="round" stroke-linejoin="round"/>
<path d="M109.279 34.9296H105.466C104.916 34.9296 104.471 35.3717 104.471 35.9171V36.6711C104.471 37.2165 104.916 37.6586 105.466 37.6586H109.279C109.828 37.6586 110.274 37.2165 110.274 36.6711V35.9171C110.274 35.3717 109.828 34.9296 109.279 34.9296Z" stroke="#111111" stroke-width="0.900168" stroke-linecap="round" stroke-linejoin="round"/>
<path d="M85.5902 51.5032C87.731 52.2572 89.419 51.6325 89.0682 51.3054C88.7174 50.9782 85.968 49.7363 85.968 49.7363C85.968 49.7363 86.1179 49.6516 87.8164 50.5246C89.515 51.3976 90.9797 50.7328 90.6798 50.4651C90.38 50.1974 86.7655 48.2937 86.7655 48.2937L90.5764 49.5147C91.4864 49.8122 92.0321 49.1385 91.7187 48.7637C91.5149 48.5183 88.533 47.4787 87.1988 47.0296C87.1988 47.0296 90.2765 47.6765 91.182 47.6825C92.0875 47.6884 91.9961 46.8749 91.6033 46.6697C91.2105 46.4644 86.9124 43.4662 82.7283 44.5876C80.7344 45.4918 78.6206 49.0448 85.5902 51.5032Z" stroke="white" stroke-width="0.900168" stroke-linecap="round" stroke-linejoin="round"/>
<path d="M95.7859 74.2904C96.6092 74.2976 97.4017 73.9801 97.9892 73.4079C98.5767 72.8356 98.9112 72.0554 98.9191 71.2386V43.2372C98.9112 42.4204 98.5767 41.6402 97.9892 41.068C97.4017 40.4957 96.6092 40.1783 95.7859 40.1854" stroke="#111111" stroke-width="0.900168" stroke-linecap="round" stroke-linejoin="round"/>
<path d="M114.374 61.288L110.242 62.0182C105.895 61.6925 101.729 63.962 101.36 64.2118C100.991 64.4617 100.991 65.2826 101.896 65.1771C102.802 65.0715 105.803 64.081 105.803 64.081C104.522 64.6759 101.658 66.0501 101.48 66.3118C101.21 66.7223 101.834 67.338 102.708 66.9364L106.38 65.2916C106.38 65.2916 102.98 67.5923 102.712 67.8942C102.444 68.1961 103.986 68.6958 105.581 67.6354C107.177 66.575 107.34 66.642 107.34 66.642C107.34 66.642 104.731 68.1902 104.418 68.556C104.105 68.9219 106.18 69.6462 107.823 68.04C107.823 68.04 110.1 68.5516 111.732 67.6488L116.212 67.1491L114.374 61.288Z" stroke="white" stroke-width="0.900168" stroke-linecap="round" stroke-linejoin="round"/>
<path d="M107.159 61.9376C105.959 61.6089 103.861 61.1598 103.261 61.194C102.499 61.2341 102.22 61.8454 102.888 62.2217C103.163 62.3778 103.582 62.6098 103.976 62.8284" stroke="white" stroke-width="0.900168" stroke-linecap="round" stroke-linejoin="round"/>
<path d="M112.723 61.1523L113.813 68.1497C113.829 68.268 113.869 68.3819 113.929 68.4848C113.99 68.5878 114.071 68.6777 114.167 68.7494C114.263 68.8211 114.373 68.8731 114.489 68.9024C114.606 68.9317 114.727 68.9377 114.846 68.9201L132.547 65.9917C132.907 65.9324 133.251 65.7992 133.556 65.6008C133.862 65.4024 134.123 65.143 134.322 64.8392C136.271 61.8647 142.051 52.8596 142.648 49.7037C143.147 47.0713 140.423 44.0121 137.584 44.134C136.326 44.1876 129.542 57.061 129.542 57.061L113.527 60.0815C113.402 60.0966 113.281 60.1368 113.173 60.1994C113.064 60.2621 112.969 60.3461 112.894 60.4462C112.819 60.5463 112.765 60.6605 112.736 60.7819C112.706 60.9033 112.702 61.0293 112.723 61.1523Z" fill="#397DF6"/>
<path d="M75.4319 89.0644C75.4319 89.0644 80.7044 94.7456 79.0299 105.5" stroke="white" stroke-width="0.900168" stroke-linecap="round" stroke-linejoin="round"/>
<path d="M57.559 94.8868V94.1566C57.5585 94.0522 57.532 93.9495 57.482 93.8577C57.432 93.7658 57.36 93.6875 57.2723 93.6298C57.1846 93.572 57.0839 93.5366 56.9792 93.5265C56.8744 93.5165 56.7687 93.5321 56.6715 93.5721L54.6702 94.3976C54.58 94.4349 54.4996 94.4921 54.435 94.5648C54.3705 94.6376 54.3235 94.724 54.2976 94.8175C54.2717 94.9109 54.2677 95.009 54.2857 95.1043C54.3038 95.1995 54.3435 95.2895 54.4018 95.3672L54.967 96.1108" stroke="white" stroke-width="0.900168" stroke-linecap="round" stroke-linejoin="round"/>
<path d="M61.2497 98.9589L62.7264 101.959L72.1066 102.107C75.4827 101.959 78.5815 103.952 79.9862 107.191L87.7264 127.12C88.5569 128.712 88.6528 130.948 87.0263 131.73L86.7144 131.879C86.3713 132.057 85.9953 132.164 85.6092 132.193C85.2231 132.223 84.8349 132.174 84.4684 132.05C84.1018 131.926 83.7645 131.73 83.477 131.472C83.1894 131.215 82.9576 130.902 82.7956 130.553C82.7474 130.444 82.7054 130.332 82.6697 130.217L78.2712 113.88L76.2233 114.46L80.4554 130.494C80.4971 130.668 80.5036 130.848 80.4748 131.025C80.446 131.201 80.3823 131.37 80.2875 131.522C80.1926 131.674 80.0684 131.806 79.9221 131.911C79.7757 132.015 79.61 132.089 79.4345 132.13L77.1513 132.299C76.5865 132.341 76.026 132.175 75.5767 131.833C75.1275 131.491 74.8208 130.997 74.7152 130.445L71.7363 115.399L66.8281 115.367L66.5702 131.15C66.5748 131.349 66.5396 131.547 66.4666 131.733C66.3935 131.919 66.2842 132.088 66.1448 132.232C66.0055 132.375 65.8388 132.49 65.6545 132.569C65.4702 132.648 65.2719 132.691 65.0711 132.694L62.3921 132.744C62.1402 132.749 61.8901 132.701 61.6584 132.603C61.4267 132.505 61.2189 132.359 61.0486 132.175C60.8784 131.99 60.7497 131.772 60.6711 131.535C60.5926 131.297 60.566 131.046 60.5931 130.797L61.9963 115.083L59.9605 114.34L51.0525 129.063C50.9301 129.262 50.7685 129.433 50.5773 129.567C50.3861 129.702 50.1695 129.796 49.9404 129.845C49.7113 129.894 49.4747 129.896 49.2448 129.851C49.0148 129.807 48.7964 129.716 48.6028 129.585L46.6614 128.259C46.4593 128.122 46.2889 127.944 46.1613 127.736C46.0337 127.529 45.9519 127.297 45.9213 127.056C45.8907 126.816 45.912 126.571 45.9837 126.339C46.0555 126.107 46.1761 125.892 46.3376 125.71L56.4989 110.69L56.6863 101.133L51.3853 104.511C51.2348 104.608 51.0603 104.661 50.881 104.666C50.7017 104.67 50.5246 104.626 50.3693 104.537C50.2141 104.447 50.0868 104.317 50.0015 104.161C49.9162 104.004 49.8763 103.827 49.8861 103.65L50.0465 100.644C50.0749 100.123 50.236 99.6181 50.5147 99.176C50.7934 98.7338 51.1806 98.369 51.6401 98.1157L57.202 95.049C57.5013 94.8829 57.8423 94.8052 58.1846 94.825C58.527 94.8447 58.8565 94.9612 59.1344 95.1606" stroke="white" stroke-width="0.900168" stroke-linecap="round" stroke-linejoin="round"/>
<path d="M59.827 100.037L64.389 96.3607C64.5248 96.2512 64.6314 96.1102 64.6994 95.9502C64.7674 95.7902 64.7947 95.6161 64.7788 95.4431C64.763 95.2702 64.7045 95.1038 64.6085 94.9585C64.5126 94.8133 64.3821 94.6937 64.2286 94.6103L61.0713 92.8955C60.9288 92.8182 60.7703 92.7741 60.608 92.7667C60.4457 92.7593 60.2838 92.7886 60.1346 92.8526C59.9854 92.9165 59.8529 93.0134 59.7472 93.1357C59.6414 93.2581 59.5652 93.4028 59.5242 93.5588L58.118 98.95C58.061 99.1663 58.0744 99.395 58.1564 99.6032C58.2384 99.8115 58.3848 99.9887 58.5745 100.109C58.7642 100.23 58.9876 100.288 59.2126 100.275C59.4376 100.262 59.6527 100.179 59.827 100.037Z" stroke="white" stroke-width="0.900168" stroke-linecap="round" stroke-linejoin="round"/>
<path d="M56.3614 97.2804C56.3762 96.9991 56.2318 96.7629 56.039 96.753C55.8462 96.743 55.678 96.963 55.6632 97.2444C55.6484 97.5257 55.7928 97.7619 55.9856 97.7718C56.1784 97.7818 56.3466 97.5618 56.3614 97.2804Z" fill="white"/>
<path d="M50.366 102.534C50.3825 102.757 51.5653 102.832 52.084 101.82" stroke="white" stroke-width="0.900168" stroke-linecap="round" stroke-linejoin="round"/>
<path d="M51.9049 99.7559C51.9241 99.0555 51.4962 98.4758 50.9491 98.461C50.402 98.4462 49.943 99.002 49.9237 99.7024C49.9045 100.403 50.3324 100.983 50.8795 100.997C51.4266 101.012 51.8857 100.456 51.9049 99.7559Z" fill="white"/>
<path d="M77.0075 103.535C75.5758 102.54 73.8536 102.039 72.1067 102.112L64.2646 101.982C64.4056 102.759 65.1641 106.944 65.3141 107.772C65.4775 108.684 65.5239 110.62 68.4128 109.972C70.9449 109.405 74.9986 106.127 77.0075 103.535Z" stroke="white" stroke-width="0.900168" stroke-linecap="round" stroke-linejoin="round"/>
<path d="M64.0592 99.008L54.6895 104.578C54.4853 104.699 54.3346 104.892 54.2673 105.119C54.2001 105.345 54.2213 105.588 54.3267 105.8L54.7764 106.71C54.8357 106.83 54.92 106.935 55.0236 107.02C55.1272 107.105 55.2478 107.167 55.3774 107.202C55.5069 107.237 55.6425 107.244 55.7751 107.223C55.9078 107.202 56.0344 107.154 56.1466 107.081L65.38 101.072C65.4845 101.004 65.5744 100.916 65.6445 100.814C65.7146 100.711 65.7635 100.596 65.7885 100.474C65.8134 100.353 65.8139 100.227 65.7898 100.106C65.7657 99.9839 65.7177 99.8681 65.6483 99.765L65.332 99.2935C65.1974 99.0929 64.9901 98.9513 64.7532 98.8982C64.5162 98.845 64.2677 98.8843 64.0592 99.008Z" fill="white"/>
<path d="M111.857 66.9553L63.5105 101.062" stroke="white" stroke-width="0.900168" stroke-linecap="round" stroke-linejoin="round"/>
<path d="M111.434 60.4503L110.61 60.5745C110.376 60.6098 110.215 60.8267 110.251 61.0589L111.342 68.1813C111.377 68.4136 111.596 68.5732 111.83 68.5379L112.654 68.4137C112.888 68.3784 113.049 68.1615 113.013 67.9293L111.923 60.8069C111.887 60.5747 111.668 60.415 111.434 60.4503Z" fill="white"/>
<path d="M178.628 132.16H236.779C238.018 132.16 239.022 131.164 239.022 129.935V101.712C239.022 100.483 238.018 99.487 236.779 99.487H178.628C177.39 99.487 176.386 100.483 176.386 101.712V129.935C176.386 131.164 177.39 132.16 178.628 132.16Z" fill="#6D6D6D"/>
<path d="M197.616 99.9569C195.945 99.9569 194.59 101.078 194.59 102.46V129.664C194.59 131.046 195.939 132.167 197.616 132.167" stroke="white" stroke-width="0.900168" stroke-linecap="round" stroke-linejoin="round"/>
<path d="M188.19 110.231V102.026C188.19 100.623 189.539 99.4869 191.217 99.4869H185.547C183.875 99.4869 182.52 100.623 182.52 102.026V110.231H188.19Z" stroke="white" stroke-width="0.900168" stroke-linecap="round" stroke-linejoin="round"/>
<path d="M268 131.959L1 133" stroke="white" stroke-width="0.900168" stroke-linecap="round" stroke-linejoin="round"/>
</svg>
