<svg width="270" height="140" viewBox="0 0 270 140" fill="none" xmlns="http://www.w3.org/2000/svg">
<g clip-path="url(#clip0_108_616)">
<path d="M59.2422 127.628C59.2422 127.628 57.7956 123.673 55.943 118.533H55.8615V118.305C54.1464 113.548 52.1004 107.83 50.5371 103.306V118.484H44.3031V96.9428H48.4111C48.2513 96.4306 48.149 96.0413 48.0994 95.7988C47.8357 94.5223 48.1474 93.7245 48.6046 93.0527H30.4941V139.326H65.083V138.445C61.2099 136.602 60.1054 129.953 59.2422 127.628ZM39.1018 118.533H32.8678V96.9923H39.1018V118.533Z" stroke="white" stroke-width="0.960582" stroke-linecap="round" stroke-linejoin="round"/>
<path d="M50.5356 122.208V120.191H44.3081V122.208H50.5356Z" fill="#263238"/>
<path d="M55.8616 122.254V120.237H56.453L57.0077 122.254H55.8616Z" fill="#263238"/>
<path d="M39.1001 122.254V120.237H32.8725V122.254H39.1001Z" fill="#263238"/>
<path d="M47.3034 133.51C48.511 133.51 49.4901 132.532 49.4901 131.327C49.4901 130.121 48.511 129.144 47.3034 129.144C46.0957 129.144 45.1167 130.121 45.1167 131.327C45.1167 132.532 46.0957 133.51 47.3034 133.51Z" stroke="white" stroke-width="0.960582" stroke-linecap="round" stroke-linejoin="round"/>
<path d="M60.6439 132.632C60.4065 132.969 60.0784 133.232 59.6975 133.391C59.3167 133.549 58.8986 133.597 58.4917 133.529C58.0847 133.46 57.7055 133.278 57.3979 133.004C57.0903 132.729 56.8667 132.373 56.7531 131.977C56.6396 131.581 56.6406 131.161 56.7561 130.765C56.8715 130.37 57.0968 130.015 57.4058 129.742C57.7147 129.469 58.0948 129.289 58.502 129.222C58.9093 129.156 59.3271 129.205 59.7072 129.366" stroke="white" stroke-width="0.960582" stroke-linecap="round" stroke-linejoin="round"/>
<path d="M35.8664 133.558C37.074 133.558 38.053 132.58 38.053 131.375C38.053 130.169 37.074 129.192 35.8664 129.192C34.6587 129.192 33.6797 130.169 33.6797 131.375C33.6797 132.58 34.6587 133.558 35.8664 133.558Z" stroke="white" stroke-width="0.960582" stroke-linecap="round" stroke-linejoin="round"/>
<path d="M50.5371 103.538V118.492H44.3096V96.946H48.2545" stroke="white" stroke-width="0.960582" stroke-linecap="round" stroke-linejoin="round"/>
<path d="M50.112 102.071H44.9075" stroke="white" stroke-width="0.960582" stroke-linecap="round" stroke-linejoin="round"/>
<path d="M50.112 104.444H44.9075" stroke="white" stroke-width="0.960582" stroke-linecap="round" stroke-linejoin="round"/>
<path d="M50.112 106.817H44.9075" stroke="white" stroke-width="0.960582" stroke-linecap="round" stroke-linejoin="round"/>
<path d="M39.1001 118.538V96.994H32.8726V118.538H39.1001Z" stroke="white" stroke-width="0.960582" stroke-linecap="round" stroke-linejoin="round"/>
<path d="M38.6798 111.99H33.3218" stroke="white" stroke-width="0.960582" stroke-linecap="round" stroke-linejoin="round"/>
<path d="M38.6798 99.7463H33.3218" stroke="white" stroke-width="0.960582" stroke-linecap="round" stroke-linejoin="round"/>
<path d="M38.6798 114.362H33.3218" stroke="white" stroke-width="0.960582" stroke-linecap="round" stroke-linejoin="round"/>
<path d="M38.6798 116.735H33.3218" stroke="white" stroke-width="0.960582" stroke-linecap="round" stroke-linejoin="round"/>
<path d="M54.5379 75.2951C54.2489 74.4829 53.8206 73.727 53.272 73.0613C51.2867 70.6471 51.2627 69.1137 50.1438 67.9569C49.0249 66.8001 47.249 67.3282 48.8475 71.2518C49.1 71.8709 49.3297 72.4331 49.5364 72.9384" stroke="white" stroke-width="0.960582" stroke-linecap="round" stroke-linejoin="round"/>
<path d="M46.3074 72.6576C47.9346 72.6815 53.3405 73.0884 56.3105 77.513" stroke="white" stroke-width="0.960582" stroke-linecap="round" stroke-linejoin="round"/>
<path d="M46.3972 76.1265C49.8339 75.4021 58.4175 74.6457 60.1023 84.5832" stroke="white" stroke-width="0.960582" stroke-linecap="round" stroke-linejoin="round"/>
<path d="M51.6977 87.5607C51.2293 85.9347 50.6763 84.3934 50.0737 83.4536C48.3058 80.6963 44.3576 80.9006 44.3576 80.9006C44.3576 80.9006 34.3194 72.0146 32.8664 70.4094C31.4134 68.8042 31.9696 67.274 34.5671 69.0579C35.9082 69.9786 38.64 71.93 40.9609 73.607" stroke="white" stroke-width="0.960582" stroke-linecap="round" stroke-linejoin="round"/>
<path d="M44.1865 80.5048C44.1865 80.5048 39.0315 69.0722 38.2595 66.9182C37.4874 64.7641 38.5312 63.628 40.2847 66.4857C41.0456 67.7271 42.23 69.677 43.3218 71.4912" stroke="white" stroke-width="0.960582" stroke-linecap="round" stroke-linejoin="round"/>
<path d="M43.6988 79.5905C43.6988 79.5905 43.288 69.7839 43.2896 67.8835C43.2896 64.7513 45.1741 63.861 45.6601 68.083C45.9797 70.9024 46.3426 76.0993 46.3426 76.0993" stroke="white" stroke-width="0.960582" stroke-linecap="round" stroke-linejoin="round"/>
<path d="M192.14 75.4755C192.43 74.5968 192.881 73.7794 193.469 73.0645C195.456 70.6487 195.476 69.1137 196.6 67.9585C197.724 66.8033 199.493 67.3298 197.895 71.2535C197.625 71.9204 197.38 72.5214 197.16 73.0565" stroke="white" stroke-width="0.960582" stroke-linecap="round" stroke-linejoin="round"/>
<path d="M200.569 72.656C199.148 72.656 193.638 72.9496 190.553 77.3359" stroke="white" stroke-width="0.960582" stroke-linecap="round" stroke-linejoin="round"/>
<path d="M200.307 76.1185C196.846 75.3972 188.318 74.6824 186.638 84.5752" stroke="white" stroke-width="0.960582" stroke-linecap="round" stroke-linejoin="round"/>
<path d="M195.161 87.1521C195.604 85.6793 196.12 84.3119 196.667 83.4502C198.435 80.693 202.383 80.8973 202.383 80.8973C202.383 80.8973 212.418 72.0129 213.874 70.4077C215.331 68.8025 214.771 67.2723 212.174 69.0562C210.797 70.0008 207.959 72.0336 205.594 73.7346" stroke="white" stroke-width="0.960582" stroke-linecap="round" stroke-linejoin="round"/>
<path d="M202.554 80.5048C202.554 80.5048 207.709 69.0722 208.481 66.9182C209.253 64.7641 208.21 63.628 206.458 66.4857C205.681 67.7495 204.466 69.752 203.353 71.5917" stroke="white" stroke-width="0.960582" stroke-linecap="round" stroke-linejoin="round"/>
<path d="M203.352 71.614C203.409 69.9434 203.452 68.4994 203.451 67.8835C203.451 64.7513 201.566 63.861 201.08 68.083C200.761 70.9024 200.399 76.0993 200.399 76.0993" stroke="white" stroke-width="0.960582" stroke-linecap="round" stroke-linejoin="round"/>
<path d="M203.042 79.5905C203.042 79.5905 203.231 75.1068 203.352 71.6124" stroke="white" stroke-width="0.960582" stroke-linecap="round" stroke-linejoin="round"/>
<path d="M101.658 63.1238C93.727 67.0793 91.2238 73.2815 92.0566 79.7421H91.9798C91.9798 79.7421 81.5484 79.6033 75.7044 96.9332C73.9925 92.9123 72.255 88.9775 71.5085 87.7457C69.8094 84.9502 64.0086 86.2059 62.4933 84.2641C60.9779 82.3222 60.4409 81.7111 60.4409 81.7111C60.4409 81.7111 55.9332 87.0819 50.3035 86.4804C50.3035 86.4804 49.9838 87.4473 50.198 89.8886C50.4122 92.3299 47.4375 92.6091 48.1008 95.802C48.7642 98.9948 59.2372 127.628 59.2372 127.628C60.2251 130.29 61.5294 138.617 66.9418 138.914C66.9565 138.953 66.9821 138.986 67.0155 139.011C67.049 139.036 67.0889 139.05 67.1304 139.053C75.7124 139.029 180.654 139.116 180.654 139.116C180.654 139.116 180.663 139.003 180.675 138.789C185.35 137.688 186.562 130.138 187.494 127.628C187.494 127.628 197.968 98.9948 198.63 95.802C199.292 92.6091 196.322 92.3299 196.534 89.8886C196.747 87.4473 196.427 86.4804 196.427 86.4804C190.804 87.0739 186.295 81.7127 186.295 81.7127C186.295 81.7127 185.758 82.319 184.244 84.2657C182.73 86.2123 179.856 84.0136 178.159 86.8091C176.787 89.0685 171.925 100.91 170.107 105.369C164.593 88.9967 157.497 80.6771 145.921 78.5837C145.162 73.9915 143.137 68.7786 138.01 64.9906" stroke="white" stroke-width="0.960582" stroke-linecap="round" stroke-linejoin="round"/>
<path d="M196.3 89.5312C196.701 86.9782 196.493 85.9953 196.493 85.9953C191.356 87.1043 186.608 81.2739 186.608 81.2739C186.608 81.2739 186.069 81.9505 184.53 84.1014C184.092 84.7572 183.418 85.2199 182.647 85.3938C184.78 92.322 194.065 93.2123 197.546 93.2953C197.287 91.7842 195.996 91.4699 196.3 89.5312Z" fill="#263238"/>
<path d="M50.1342 89.5185C49.733 86.9655 50.2477 85.9953 50.2477 85.9953C55.3867 87.1043 60.1341 81.2739 60.1341 81.2739C60.1341 81.2739 60.9077 81.3601 62.4438 83.5078C63.0624 84.3742 64.1254 85.1034 64.7664 85.2805C62.634 92.2071 51.9548 93.1469 48.4734 93.2315C48.7355 91.7252 50.4379 91.4587 50.1342 89.5185Z" fill="#263238"/>
<path d="M92.4354 79.423C89.3121 80.0612 85.6372 81.4813 82.7744 84.6518C85.439 88.5004 95.1816 101.808 112.346 104.597C112.332 104.478 112.306 104.361 112.269 104.248C102.753 100.34 93.4409 89.5057 92.4354 79.423Z" fill="white"/>
<path d="M145.288 77.6534C145.883 81.1989 145.72 84.3821 145.64 86.2618C145.376 92.4751 143.092 96.7657 141.337 99.858L141.001 102.081C148.25 100.375 154.276 88.8371 155.246 82.2344C152.673 80.8351 151.592 78.9267 145.288 77.6534Z" fill="white"/>
<path d="M112.147 100.129C112.147 100.129 119.037 111.994 119.751 119.489" stroke="white" stroke-width="1.28078" stroke-linecap="round" stroke-linejoin="round"/>
<path d="M140.064 99.8341C140.064 99.8341 137.155 111.509 137.943 118.997" stroke="white" stroke-width="1.28078" stroke-linecap="round" stroke-linejoin="round"/>
<path d="M75.519 96.3046L82.9902 113.761" stroke="white" stroke-width="0.960582" stroke-linecap="round" stroke-linejoin="round"/>
<path d="M170.363 104.886L165.272 114.815" stroke="white" stroke-width="0.960582" stroke-linecap="round" stroke-linejoin="round"/>
<path d="M97.8718 126.494C97.8718 126.494 97.2324 139.485 90.4294 139.182" stroke="white" stroke-width="0.960582" stroke-linecap="round" stroke-linejoin="round"/>
<path d="M135.926 105.112C139.585 94.3037 138.164 80.7394 135.693 78.7736C135.196 78.3795 133.701 78.0795 131.629 77.8513C130.763 77.7572 130.085 78.3858 130.085 78.3858L133.158 78.8645C131.788 91.9677 125.929 96.0972 125.929 96.0972C116.382 85.089 105.706 77.7093 105.706 77.7093L106.473 77.1812L105.93 77.1891L101.024 78.8757C101.024 78.8757 119.702 96.1977 125.232 127.805C126.1 132.761 126.687 136.656 127.077 139.712L136.535 139.158C135.117 128.191 133.608 111.974 135.926 105.112Z" fill="#397DF6"/>
<path d="M110.022 70.6935L109.782 74.9043L105.706 77.7094C105.706 77.7094 116.382 85.0891 125.929 96.1116C125.929 96.1116 131.788 91.9774 133.158 78.879L130.085 78.4003" stroke="white" stroke-width="0.960582" stroke-linecap="round" stroke-linejoin="round"/>
<path d="M104.719 55.5591C103.068 56.0282 99.6715 57.5392 101.043 61.8394C102.231 65.562 105.544 64.9812 107.633 64.1738" stroke="white" stroke-width="0.960582" stroke-linecap="round" stroke-linejoin="round"/>
<path d="M135.865 40.088C137.449 46.4896 137.91 53.4912 137.889 58.8987Z" fill="white"/>
<path d="M135.865 40.088C137.449 46.4896 137.91 53.4912 137.889 58.8987" stroke="white" stroke-width="0.960582" stroke-linecap="round" stroke-linejoin="round"/>
<path d="M108.124 54.0033C109.288 54.9431 112.785 60.7448 113.795 63.5227C113.795 63.5227 120.44 60.3044 130.336 58.988C130.336 58.988 135.755 58.463 137.985 58.8683C137.985 58.8683 138.677 69.0467 134.896 74.8053C131.116 80.5639 121.68 80.1905 116.973 77.5498C112.266 74.909 111.378 73.4937 109.985 70.2403C108.591 66.9868 104.491 54.7277 104.491 54.7277L108.124 54.0033Z" stroke="white" stroke-width="0.960582" stroke-linecap="round" stroke-linejoin="round"/>
<path d="M105.554 56.4957C105.554 56.4957 102.061 52.1795 100.372 47.4693C98.7733 43.0414 100.33 38.0264 104.254 35.5022C107.538 33.3912 110.268 34.4315 110.268 34.4315C110.268 34.4315 105.859 28.4863 110.762 22.2139C111.612 21.1213 112.679 20.2151 113.896 19.5519C115.112 18.8887 116.453 18.4826 117.833 18.3589C124.615 17.7765 127.358 23.3324 127.358 23.3324C127.358 23.3324 133.076 9.0054 148.813 15.2682C150.4 15.9064 152.337 17.9488 153.316 19.3657C159.249 27.9597 144.321 40.6863 136.011 42.5213C126.884 44.5349 121.305 43.6095 118.073 41.6628C120.437 42.7542 119.529 57.0589 105.554 56.4957Z" fill="white"/>
<path d="M129.51 52.6072L131.517 61.3097L128.936 61.8952" stroke="white" stroke-width="1.28078" stroke-linecap="round" stroke-linejoin="round"/>
<path d="M133.59 54.6109C133.632 54.9843 133.573 55.3294 133.447 55.5849C133.322 55.8413 133.136 55.9972 132.926 56.0206C132.717 56.0439 132.501 55.933 132.321 55.7106C132.143 55.489 132.009 55.1655 131.967 54.7921C131.925 54.4187 131.984 54.0736 132.109 53.8181C132.235 53.5617 132.421 53.4058 132.631 53.3824C132.84 53.359 133.056 53.47 133.235 53.6924C133.414 53.914 133.548 54.2375 133.59 54.6109Z" fill="white" stroke="white" stroke-width="0.160097"/>
<path d="M125.068 55.1775C125.11 55.551 125.05 55.8961 124.925 56.1515C124.799 56.408 124.613 56.5638 124.404 56.5872C124.194 56.6106 123.978 56.4996 123.799 56.2772C123.62 56.0557 123.486 55.7321 123.444 55.3587C123.403 54.9853 123.462 54.6402 123.587 54.3848C123.713 54.1283 123.899 53.9725 124.108 53.9491C124.318 53.9257 124.534 54.0367 124.713 54.2591C124.892 54.4806 125.026 54.8041 125.068 55.1775Z" fill="white" stroke="white" stroke-width="0.160097"/>
<path d="M121.095 53.0013C121.095 53.0013 124.742 52.7843 124.695 50.3525" stroke="white" stroke-width="1.28078" stroke-linecap="round" stroke-linejoin="round"/>
<path d="M131.589 46.8726C131.589 46.8726 133.987 45.9295 134.837 47.9049" stroke="white" stroke-width="1.28078" stroke-linecap="round" stroke-linejoin="round"/>
<path d="M128.718 65.7758C127.438 66.0096 126.136 66.0958 124.836 66.0327C124.037 65.9992 123.431 66.4922 123.667 66.9901C124.081 67.8645 125.071 68.9048 127.42 68.632C129.735 68.3575 130.197 67.29 130.192 66.4683C130.189 65.9737 129.442 65.6338 128.718 65.7758Z" stroke="white" stroke-width="0.960582" stroke-linecap="round" stroke-linejoin="round"/>
<path d="M150.058 119.388C149.72 119.388 149.39 119.488 149.11 119.676C148.829 119.863 148.61 120.129 148.481 120.44C148.352 120.752 148.318 121.094 148.384 121.425C148.45 121.755 148.612 122.059 148.851 122.297C149.09 122.536 149.394 122.698 149.725 122.764C150.056 122.83 150.399 122.796 150.711 122.667C151.023 122.538 151.29 122.319 151.477 122.039C151.665 121.759 151.765 121.429 151.765 121.092C151.765 120.641 151.585 120.207 151.265 119.888C150.945 119.568 150.511 119.389 150.058 119.388Z" fill="white"/>
<path d="M144.561 131.376C144.108 131.376 143.674 131.556 143.354 131.875C143.034 132.195 142.854 132.628 142.854 133.08C142.854 133.532 143.034 133.966 143.354 134.285C143.674 134.605 144.108 134.784 144.561 134.784H144.569C145.022 134.783 145.455 134.603 145.775 134.283C146.094 133.962 146.273 133.528 146.272 133.076C146.271 132.624 146.09 132.191 145.769 131.873C145.448 131.554 145.014 131.375 144.561 131.376Z" fill="white"/>
<path d="M188.445 115.73H142.09V127.309L133.583 127.451L133.639 139.03L182.767 138.797L182.711 127.309H188.449L188.445 115.73ZM146.455 134.95C146.21 135.201 145.918 135.401 145.595 135.538C145.272 135.675 144.925 135.746 144.574 135.748H144.561C143.854 135.75 143.175 135.471 142.674 134.973C142.173 134.475 141.89 133.799 141.888 133.093C141.887 132.387 142.166 131.71 142.665 131.209C143.164 130.709 143.841 130.427 144.548 130.425H144.561C145.085 130.427 145.597 130.583 146.033 130.874C146.469 131.165 146.81 131.578 147.012 132.061C147.214 132.544 147.269 133.075 147.17 133.589C147.071 134.103 146.822 134.577 146.455 134.95ZM150.058 123.751C149.531 123.751 149.015 123.595 148.577 123.302C148.138 123.01 147.797 122.594 147.595 122.108C147.393 121.621 147.34 121.086 147.443 120.57C147.546 120.054 147.8 119.58 148.173 119.207C148.546 118.835 149.021 118.582 149.538 118.479C150.055 118.376 150.591 118.429 151.078 118.63C151.565 118.832 151.982 119.173 152.275 119.611C152.568 120.048 152.724 120.563 152.724 121.089C152.724 121.795 152.443 122.473 151.943 122.972C151.444 123.472 150.765 123.753 150.058 123.754V123.751ZM157.492 135.959L157.462 129.736L159.482 129.726L159.511 135.949L157.492 135.959ZM159.994 118.099H162.014V124.322H159.994V118.099ZM160.416 135.944L160.386 129.722L181.965 129.619L181.995 135.842L160.416 135.944ZM184.5 124.316H162.921V118.093H184.5V124.316Z" fill="white"/>
<path d="M176.861 135.158L176.838 130.538" stroke="#6D6D6D" stroke-width="0.960582" stroke-linecap="round" stroke-linejoin="round"/>
<path d="M174.484 135.169L174.461 130.55" stroke="#6D6D6D" stroke-width="0.960582" stroke-linecap="round" stroke-linejoin="round"/>
<path d="M172.107 135.18L172.084 130.561" stroke="#6D6D6D" stroke-width="0.960582" stroke-linecap="round" stroke-linejoin="round"/>
<path d="M169.477 123.537V118.918" stroke="#6D6D6D" stroke-width="0.960582" stroke-linecap="round" stroke-linejoin="round"/>
<path d="M181.742 123.537V118.918" stroke="#6D6D6D" stroke-width="0.960582" stroke-linecap="round" stroke-linejoin="round"/>
<path d="M167.101 123.537V118.918" stroke="#6D6D6D" stroke-width="0.960582" stroke-linecap="round" stroke-linejoin="round"/>
<path d="M164.724 123.537V118.918" stroke="#6D6D6D" stroke-width="0.960582" stroke-linecap="round" stroke-linejoin="round"/>
<path d="M237.09 98.8417H179.682V139.262H237.09V98.8417Z" fill="#263238"/>
<path d="M211.892 98.9342V139.493Z" fill="#6D6D6D"/>
<path d="M211.892 98.9342V139.493" stroke="white" stroke-width="0.960582" stroke-linecap="round" stroke-linejoin="round"/>
<path d="M204.164 103.319H230.14" stroke="white" stroke-width="0.960582" stroke-linecap="round" stroke-linejoin="round"/>
<path d="M219.88 117.841H236.569" stroke="white" stroke-width="0.960582" stroke-linecap="round" stroke-linejoin="round"/>
<path d="M201.567 131.389H234.103" stroke="white" stroke-width="0.960582" stroke-linecap="round" stroke-linejoin="round"/>
<path d="M206.113 114.211H189.294" stroke="white" stroke-width="0.960582" stroke-linecap="round" stroke-linejoin="round"/>
<path d="M179.746 107.857H189.943" stroke="white" stroke-width="0.960582" stroke-linecap="round" stroke-linejoin="round"/>
<path d="M179.682 126.527H199.618" stroke="white" stroke-width="0.960582" stroke-linecap="round" stroke-linejoin="round"/>
<path d="M179.596 107.921C175.309 109.606 179.725 112.425 179.725 112.425C179.725 112.425 180.83 109.234 186.479 107.933L179.596 107.921Z" fill="#6D6D6D" stroke="white" stroke-width="0.960582" stroke-linecap="round" stroke-linejoin="round"/>
<path d="M237.258 117.774C241.544 119.459 237.127 122.28 237.127 122.28C237.127 122.28 236.024 119.088 230.374 117.786L237.258 117.774Z" fill="#6D6D6D" stroke="white" stroke-width="0.960582" stroke-linecap="round" stroke-linejoin="round"/>
<path d="M194.749 126.556C194.749 126.556 184.802 128.429 185.048 134.271C185.048 134.271 177.075 131.351 179.773 126.556H194.749Z" fill="#6D6D6D" stroke="white" stroke-width="0.960582" stroke-linecap="round" stroke-linejoin="round"/>
<path d="M-0.0473633 139.212H269.291" stroke="white" stroke-width="1.28078" stroke-linecap="round" stroke-linejoin="round"/>
</g>
<defs>
<clipPath id="clip0_108_616">
<rect width="270" height="140" fill="white"/>
</clipPath>
</defs>
</svg>
