<svg width="15" height="28" viewBox="0 0 15 28" fill="none" xmlns="http://www.w3.org/2000/svg">
<path d="M12.6594 28C12.3606 28.001 12.0653 27.9351 11.7954 27.807C11.5254 27.679 11.2876 27.492 11.0994 27.26L1.43935 15.26C1.14519 14.9021 0.984375 14.4533 0.984375 13.99C0.984375 13.5268 1.14519 13.0779 1.43935 12.72L11.4394 0.720002C11.7788 0.311569 12.2667 0.05472 12.7955 0.00596056C13.3244 -0.0427989 13.8509 0.120525 14.2594 0.460002C14.6678 0.799479 14.9246 1.2873 14.9734 1.81615C15.0222 2.34501 14.8588 2.87157 14.5194 3.28L5.57935 14L14.2193 24.72C14.4639 25.0136 14.6193 25.3711 14.667 25.7502C14.7148 26.1292 14.653 26.5141 14.4888 26.8592C14.3247 27.2042 14.0652 27.495 13.741 27.6972C13.4168 27.8994 13.0414 28.0045 12.6594 28Z" fill="white"/>
</svg>
